<svg width="160" height="204" viewBox="0 0 160 204" fill="none" xmlns="http://www.w3.org/2000/svg">
<g filter="url(#filter0_b_1_528)">
<g filter="url(#filter1_d_1_528)">
<path d="M79.6123 34.562C57.3304 34.562 39.3022 51.8072 39.3022 73.0582C39.3022 94.3092 79.6123 155.211 79.6123 155.211C79.6123 155.211 119.922 94.3092 119.922 73.0582C119.922 51.8072 101.894 34.562 79.6123 34.562Z" fill="white"/>
</g>
<g filter="url(#filter2_d_1_528)">
<path d="M80.0001 28.335C53.6474 28.335 32.3257 48.2504 32.3257 72.7919C32.3257 97.3334 80.0001 167.665 80.0001 167.665C80.0001 167.665 127.675 97.3334 127.675 72.7919C127.675 48.2504 106.353 28.335 80.0001 28.335Z" stroke="white" stroke-width="3" stroke-miterlimit="10" stroke-linejoin="round"/>
</g>
</g>
<defs>
<filter id="filter0_b_1_528" x="0" y="-4" width="160" height="204" filterUnits="userSpaceOnUse" color-interpolation-filters="sRGB">
<feFlood flood-opacity="0" result="BackgroundImageFix"/>
<feGaussianBlur in="BackgroundImage" stdDeviation="15"/>
<feComposite in2="SourceAlpha" operator="in" result="effect1_backgroundBlur_1_528"/>
<feBlend mode="normal" in="SourceGraphic" in2="effect1_backgroundBlur_1_528" result="shape"/>
</filter>
<filter id="filter1_d_1_528" x="9.30225" y="8.56201" width="140.62" height="180.648" filterUnits="userSpaceOnUse" color-interpolation-filters="sRGB">
<feFlood flood-opacity="0" result="BackgroundImageFix"/>
<feColorMatrix in="SourceAlpha" type="matrix" values="0 0 0 0 0 0 0 0 0 0 0 0 0 0 0 0 0 0 127 0" result="hardAlpha"/>
<feOffset dy="4"/>
<feGaussianBlur stdDeviation="15"/>
<feColorMatrix type="matrix" values="0 0 0 0 1 0 0 0 0 1 0 0 0 0 1 0 0 0 0.5 0"/>
<feBlend mode="normal" in2="BackgroundImageFix" result="effect1_dropShadow_1_528"/>
<feBlend mode="normal" in="SourceGraphic" in2="effect1_dropShadow_1_528" result="shape"/>
</filter>
<filter id="filter2_d_1_528" x="0.825684" y="0.834961" width="158.349" height="202.33" filterUnits="userSpaceOnUse" color-interpolation-filters="sRGB">
<feFlood flood-opacity="0" result="BackgroundImageFix"/>
<feColorMatrix in="SourceAlpha" type="matrix" values="0 0 0 0 0 0 0 0 0 0 0 0 0 0 0 0 0 0 127 0" result="hardAlpha"/>
<feOffset dy="4"/>
<feGaussianBlur stdDeviation="15"/>
<feColorMatrix type="matrix" values="0 0 0 0 0 0 0 0 0 0 0 0 0 0 0 0 0 0 0.5 0"/>
<feBlend mode="normal" in2="BackgroundImageFix" result="effect1_dropShadow_1_528"/>
<feBlend mode="normal" in="SourceGraphic" in2="effect1_dropShadow_1_528" result="shape"/>
</filter>
</defs>
</svg>
